<svg width="1574" height="917" xmlns="http://www.w3.org/2000/svg"><g><path d="M-102,-122L-115,33L36,-58Z" fill="#fffbfe" stroke="#fffbfe"/><path d="M-102,-122L36,-58L357,-130Z" fill="#f3f1f8" stroke="#f3f1f8"/><path d="M36,-58L-115,33L125,64Z" fill="#f9f6fb" stroke="#f9f6fb"/><path d="M36,-58L125,64L200,-46Z" fill="#f1eff7" stroke="#f1eff7"/><path d="M36,-58L200,-46L357,-130Z" fill="#eaeaf4" stroke="#eaeaf4"/><path d="M200,-46L125,64L280,57Z" fill="#e9e9f4" stroke="#e9e9f4"/><path d="M200,-46L280,57L357,-130Z" fill="#e3e6f1" stroke="#e3e6f1"/><path d="M357,-130L280,57L530,-24Z" fill="#d8e1ef" stroke="#d8e1ef"/><path d="M357,-130L530,-24L643,-60Z" fill="#cadcec" stroke="#cadcec"/><path d="M357,-130L643,-60L808,-100Z" fill="#bdd7e9" stroke="#bdd7e9"/><path d="M357,-130L808,-100L1158,-127Z" fill="#a8cfe4" stroke="#a8cfe4"/><path d="M357,-130L1158,-127L1309,-132Z" fill="#96c6db" stroke="#96c6db"/><path d="M530,-24L280,57L320,114Z" fill="#d8e0ef" stroke="#d8e0ef"/><path d="M530,-24L320,114L408,173Z" fill="#d3deee" stroke="#d3deee"/><path d="M530,-24L408,173L572,109Z" fill="#c9daec" stroke="#c9daec"/><path d="M530,-24L572,109L643,-60Z" fill="#c0d8ea" stroke="#c0d8ea"/><path d="M643,-60L572,109L687,101Z" fill="#b7d5e8" stroke="#b7d5e8"/><path d="M643,-60L687,101L769,39Z" fill="#b0d2e6" stroke="#b0d2e6"/><path d="M643,-60L769,39L808,-100Z" fill="#acd1e5" stroke="#acd1e5"/><path d="M808,-100L769,39L977,77Z" fill="#a0cae1" stroke="#a0cae1"/><path d="M808,-100L977,77L989,-103Z" fill="#98c7dd" stroke="#98c7dd"/><path d="M808,-100L989,-103L1158,-127Z" fill="#91c5d5" stroke="#91c5d5"/><path d="M989,-103L977,77L1121,91Z" fill="#8bc3d0" stroke="#8bc3d0"/><path d="M989,-103L1121,91L1158,-127Z" fill="#85c1c9" stroke="#85c1c9"/><path d="M1158,-127L1121,91L1309,-132Z" fill="#81bcbc" stroke="#81bcbc"/><path d="M1309,-132L1121,91L1328,128Z" fill="#7fb7b4" stroke="#7fb7b4"/><path d="M1309,-132L1328,128L1395,-38Z" fill="#80b2a8" stroke="#80b2a8"/><path d="M1309,-132L1395,-38L1632,-20Z" fill="#80ac9b" stroke="#80ac9b"/><path d="M1309,-132L1632,-20L1717,-58Z" fill="#80a58e" stroke="#80a58e"/><path d="M1395,-38L1328,128L1472,48Z" fill="#7faea1" stroke="#7faea1"/><path d="M1395,-38L1472,48L1558,30Z" fill="#7fa998" stroke="#7fa998"/><path d="M1395,-38L1558,30L1632,-20Z" fill="#80a691" stroke="#80a691"/><path d="M1632,-20L1558,30L1669,97Z" fill="#7f9f85" stroke="#7f9f85"/><path d="M1632,-20L1669,97L1717,-58Z" fill="#809d80" stroke="#809d80"/><path d="M1717,-58L1669,97L1729,276Z" fill="#7d9880" stroke="#7d9880"/><path d="M1717,-58L1729,276L1777,410Z" fill="#6d8e80" stroke="#6d8e80"/><path d="M-115,33L-133,275L66,171Z" fill="#f6f6fe" stroke="#f6f6fe"/><path d="M-115,33L66,171L125,64Z" fill="#f6f4fa" stroke="#f6f4fa"/><path d="M125,64L66,171L239,174Z" fill="#eaeaf6" stroke="#eaeaf6"/><path d="M125,64L239,174L280,57Z" fill="#e6e6f3" stroke="#e6e6f3"/><path d="M280,57L239,174L320,114Z" fill="#e0e3f1" stroke="#e0e3f1"/><path d="M320,114L239,174L408,173Z" fill="#d7dff0" stroke="#d7dff0"/><path d="M572,109L408,173L569,246Z" fill="#bdd4eb" stroke="#bdd4eb"/><path d="M572,109L569,246L687,101Z" fill="#b5d2e9" stroke="#b5d2e9"/><path d="M687,101L569,246L711,249Z" fill="#a5cce8" stroke="#a5cce8"/><path d="M687,101L711,249L786,247Z" fill="#9dc8e5" stroke="#9dc8e5"/><path d="M687,101L786,247L769,39Z" fill="#a8cde5" stroke="#a8cde5"/><path d="M769,39L786,247L977,77Z" fill="#9ec8e2" stroke="#9ec8e2"/><path d="M977,77L786,247L973,267Z" fill="#89bede" stroke="#89bede"/><path d="M977,77L973,267L1121,91Z" fill="#86bfd1" stroke="#86bfd1"/><path d="M1121,91L973,267L1145,242Z" fill="#75b8ca" stroke="#75b8ca"/><path d="M1121,91L1145,242L1328,128Z" fill="#79b6bb" stroke="#79b6bb"/><path d="M1328,128L1145,242L1331,283Z" fill="#6cacb2" stroke="#6cacb2"/><path d="M1328,128L1331,283L1421,170Z" fill="#71a9a6" stroke="#71a9a6"/><path d="M1328,128L1421,170L1472,48Z" fill="#7daca0" stroke="#7daca0"/><path d="M1472,48L1421,170L1558,30Z" fill="#7ea796" stroke="#7ea796"/><path d="M1558,30L1421,170L1633,266Z" fill="#78a18f" stroke="#78a18f"/><path d="M1558,30L1633,266L1669,97Z" fill="#7c9d85" stroke="#7c9d85"/><path d="M1669,97L1633,266L1729,276Z" fill="#6d9280" stroke="#6d9280"/><path d="M-133,275L-66,1117L-94,620Z" fill="#91c9cd" stroke="#91c9cd"/><path d="M-133,275L-94,620L-97,417Z" fill="#b3def8" stroke="#b3def8"/><path d="M-133,275L-97,417L48,410Z" fill="#c5e3fb" stroke="#c5e3fb"/><path d="M-133,275L48,410L66,171Z" fill="#d8e7fb" stroke="#d8e7fb"/><path d="M66,171L48,410L240,344Z" fill="#c7dcf5" stroke="#c7dcf5"/><path d="M66,171L240,344L239,174Z" fill="#d5dff4" stroke="#d5dff4"/><path d="M239,174L240,344L408,173Z" fill="#cbd9f1" stroke="#cbd9f1"/><path d="M408,173L240,344L431,353Z" fill="#b7d1ee" stroke="#b7d1ee"/><path d="M408,173L431,353L503,334Z" fill="#afcdec" stroke="#afcdec"/><path d="M408,173L503,334L569,246Z" fill="#b2ceec" stroke="#b2ceec"/><path d="M569,246L503,334L734,398Z" fill="#8ec2e7" stroke="#8ec2e7"/><path d="M569,246L734,398L711,249Z" fill="#8dc2e6" stroke="#8dc2e6"/><path d="M711,249L734,398L786,247Z" fill="#85bee4" stroke="#85bee4"/><path d="M786,247L734,398L829,377Z" fill="#74b8e1" stroke="#74b8e1"/><path d="M786,247L829,377L973,267Z" fill="#78b8e0" stroke="#78b8e0"/><path d="M973,267L829,377L1020,431Z" fill="#5eaed8" stroke="#5eaed8"/><path d="M973,267L1020,431L1145,242Z" fill="#5fafcd" stroke="#5fafcd"/><path d="M1145,242L1020,431L1179,370Z" fill="#4daac3" stroke="#4daac3"/><path d="M1145,242L1179,370L1331,283Z" fill="#5aa8b8" stroke="#5aa8b8"/><path d="M1331,283L1179,370L1329,410Z" fill="#499fae" stroke="#499fae"/><path d="M1331,283L1329,410L1400,414Z" fill="#4598a4" stroke="#4598a4"/><path d="M1331,283L1400,414L1421,170Z" fill="#5c9ea2" stroke="#5c9ea2"/><path d="M1421,170L1400,414L1562,424Z" fill="#4f9597" stroke="#4f9597"/><path d="M1421,170L1562,424L1633,266Z" fill="#5c948e" stroke="#5c948e"/><path d="M1633,266L1562,424L1777,410Z" fill="#45857d" stroke="#45857d"/><path d="M1633,266L1777,410L1729,276Z" fill="#53867e" stroke="#53867e"/><path d="M-97,417L-94,620L-44,574Z" fill="#9ed2ee" stroke="#9ed2ee"/><path d="M-97,417L-44,574L48,410Z" fill="#abd6f3" stroke="#abd6f3"/><path d="M48,410L-44,574L110,543Z" fill="#9ccdee" stroke="#9ccdee"/><path d="M48,410L110,543L240,344Z" fill="#a5cff0" stroke="#a5cff0"/><path d="M240,344L110,543L270,511Z" fill="#97c6ea" stroke="#97c6ea"/><path d="M240,344L270,511L431,353Z" fill="#9bc8ec" stroke="#9bc8ec"/><path d="M431,353L270,511L344,532Z" fill="#8ac0e7" stroke="#8ac0e7"/><path d="M431,353L344,532L471,544Z" fill="#81bce5" stroke="#81bce5"/><path d="M431,353L471,544L503,334Z" fill="#8ac0e8" stroke="#8ac0e8"/><path d="M503,334L471,544L722,473Z" fill="#74b8e2" stroke="#74b8e2"/><path d="M503,334L722,473L734,398Z" fill="#72b9e3" stroke="#72b9e3"/><path d="M734,398L722,473L829,377Z" fill="#63b2df" stroke="#63b2df"/><path d="M829,377L722,473L805,538Z" fill="#56acdb" stroke="#56acdb"/><path d="M829,377L805,538L977,494Z" fill="#4aa6d7" stroke="#4aa6d7"/><path d="M829,377L977,494L1020,431Z" fill="#4ba7d4" stroke="#4ba7d4"/><path d="M1020,431L977,494L1101,556Z" fill="#339dc5" stroke="#339dc5"/><path d="M1020,431L1101,556L1179,370Z" fill="#34a0c0" stroke="#34a0c0"/><path d="M1179,370L1101,556L1316,524Z" fill="#2a96b1" stroke="#2a96b1"/><path d="M1179,370L1316,524L1329,410Z" fill="#3597aa" stroke="#3597aa"/><path d="M1329,410L1316,524L1371,496Z" fill="#2b8ea0" stroke="#2b8ea0"/><path d="M1329,410L1371,496L1400,414Z" fill="#34919e" stroke="#34919e"/><path d="M1400,414L1371,496L1562,424Z" fill="#338b94" stroke="#338b94"/><path d="M1562,424L1371,496L1591,523Z" fill="#2a8389" stroke="#2a8389"/><path d="M1562,424L1591,523L1777,410Z" fill="#307d7a" stroke="#307d7a"/><path d="M1777,410L1591,523L1758,520Z" fill="#297675" stroke="#297675"/><path d="M1777,410L1758,520L1737,985Z" fill="#146656" stroke="#146656"/><path d="M-44,574L-94,620L34,695Z" fill="#93c9d6" stroke="#93c9d6"/><path d="M-44,574L34,695L110,543Z" fill="#8fc6d9" stroke="#8fc6d9"/><path d="M110,543L34,695L262,690Z" fill="#83bdcc" stroke="#83bdcc"/><path d="M110,543L262,690L270,511Z" fill="#83bbd8" stroke="#83bbd8"/><path d="M270,511L262,690L344,532Z" fill="#7cb8d7" stroke="#7cb8d7"/><path d="M344,532L262,690L402,646Z" fill="#73b3cb" stroke="#73b3cb"/><path d="M344,532L402,646L471,544Z" fill="#72b3d5" stroke="#72b3d5"/><path d="M471,544L402,646L555,665Z" fill="#65adc8" stroke="#65adc8"/><path d="M471,544L555,665L722,473Z" fill="#5dacd4" stroke="#5dacd4"/><path d="M722,473L555,665L685,681Z" fill="#4ea6c6" stroke="#4ea6c6"/><path d="M722,473L685,681L805,538Z" fill="#48a5ce" stroke="#48a5ce"/><path d="M805,538L685,681L855,623Z" fill="#3e9fc0" stroke="#3e9fc0"/><path d="M805,538L855,623L927,621Z" fill="#389bc2" stroke="#389bc2"/><path d="M805,538L927,621L977,494Z" fill="#389ccc" stroke="#389ccc"/><path d="M977,494L927,621L1074,637Z" fill="#2a97b9" stroke="#2a97b9"/><path d="M977,494L1074,637L1101,556Z" fill="#2697b7" stroke="#2697b7"/><path d="M1101,556L1074,637L1313,651Z" fill="#178e9c" stroke="#178e9c"/><path d="M1101,556L1313,651L1316,524Z" fill="#1b8c9b" stroke="#1b8c9b"/><path d="M1316,524L1313,651L1367,673Z" fill="#178386" stroke="#178386"/><path d="M1316,524L1367,673L1371,496Z" fill="#1c8590" stroke="#1c8590"/><path d="M1371,496L1367,673L1591,523Z" fill="#1c8085" stroke="#1c8085"/><path d="M1591,523L1367,673L1542,707Z" fill="#14776c" stroke="#14776c"/><path d="M1591,523L1542,707L1718,647Z" fill="#15705f" stroke="#15705f"/><path d="M1591,523L1718,647L1758,520Z" fill="#1c7069" stroke="#1c7069"/><path d="M1758,520L1718,647L1729,810Z" fill="#126651" stroke="#126651"/><path d="M1758,520L1729,810L1737,985Z" fill="#125634" stroke="#125634"/><path d="M-94,620L-66,1117L-70,788Z" fill="#91b1a0" stroke="#91b1a0"/><path d="M-94,620L-70,788L34,695Z" fill="#90c2c3" stroke="#90c2c3"/><path d="M34,695L-70,788L110,819Z" fill="#8bb4af" stroke="#8bb4af"/><path d="M34,695L110,819L262,690Z" fill="#81b1b4" stroke="#81b1b4"/><path d="M262,690L110,819L212,883Z" fill="#7ca5a1" stroke="#7ca5a1"/><path d="M262,690L212,883L361,773Z" fill="#75a2a2" stroke="#75a2a2"/><path d="M262,690L361,773L402,646Z" fill="#6faab6" stroke="#6faab6"/><path d="M402,646L361,773L486,809Z" fill="#68a2aa" stroke="#68a2aa"/><path d="M402,646L486,809L555,665Z" fill="#60a3b1" stroke="#60a3b1"/><path d="M555,665L486,809L713,805Z" fill="#5298a1" stroke="#5298a1"/><path d="M555,665L713,805L685,681Z" fill="#499aaa" stroke="#499aaa"/><path d="M685,681L713,805L878,773Z" fill="#3c909d" stroke="#3c909d"/><path d="M685,681L878,773L855,623Z" fill="#3795ab" stroke="#3795ab"/><path d="M855,623L878,773L927,621Z" fill="#2e93ae" stroke="#2e93ae"/><path d="M927,621L878,773L981,803Z" fill="#298a9a" stroke="#298a9a"/><path d="M927,621L981,803L1074,637Z" fill="#228e9e" stroke="#228e9e"/><path d="M1074,637L981,803L1092,791Z" fill="#1b8489" stroke="#1b8489"/><path d="M1074,637L1092,791L1313,651Z" fill="#138689" stroke="#138689"/><path d="M1313,651L1092,791L1252,841Z" fill="#137a6f" stroke="#137a6f"/><path d="M1313,651L1252,841L1367,673Z" fill="#12796e" stroke="#12796e"/><path d="M1367,673L1252,841L1465,819Z" fill="#126e58" stroke="#126e58"/><path d="M1367,673L1465,819L1542,707Z" fill="#126e58" stroke="#126e58"/><path d="M1542,707L1465,819L1589,842Z" fill="#12613f" stroke="#12613f"/><path d="M1542,707L1589,842L1729,810Z" fill="#125c35" stroke="#125c35"/><path d="M1542,707L1729,810L1718,647Z" fill="#126241" stroke="#126241"/><path d="M-70,788L-66,1117L-41,1017Z" fill="#919e7e" stroke="#919e7e"/><path d="M-70,788L-41,1017L110,819Z" fill="#8da794" stroke="#8da794"/><path d="M110,819L-41,1017L102,1006Z" fill="#889a7f" stroke="#889a7f"/><path d="M110,819L102,1006L212,883Z" fill="#819a87" stroke="#819a87"/><path d="M212,883L102,1006L274,973Z" fill="#7c9078" stroke="#7c9078"/><path d="M212,883L274,973L361,773Z" fill="#749689" stroke="#749689"/><path d="M361,773L274,973L413,993Z" fill="#6e8e7e" stroke="#6e8e7e"/><path d="M361,773L413,993L486,809Z" fill="#68928b" stroke="#68928b"/><path d="M486,809L413,993L481,998Z" fill="#638676" stroke="#638676"/><path d="M486,809L481,998L717,990Z" fill="#558274" stroke="#558274"/><path d="M486,809L717,990L713,805Z" fill="#4a8783" stroke="#4a8783"/><path d="M713,805L717,990L782,1001Z" fill="#3e796f" stroke="#3e796f"/><path d="M713,805L782,1001L878,773Z" fill="#398080" stroke="#398080"/><path d="M878,773L782,1001L954,928Z" fill="#307673" stroke="#307673"/><path d="M878,773L954,928L981,803Z" fill="#287c7e" stroke="#287c7e"/><path d="M981,803L954,928L1112,923Z" fill="#1f7368" stroke="#1f7368"/><path d="M981,803L1112,923L1092,791Z" fill="#1a776e" stroke="#1a776e"/><path d="M1092,791L1112,923L1252,841Z" fill="#137160" stroke="#137160"/><path d="M1252,841L1112,923L1281,1004Z" fill="#136445" stroke="#136445"/><path d="M1252,841L1281,1004L1398,1010Z" fill="#125a31" stroke="#125a31"/><path d="M1252,841L1398,1010L1465,819Z" fill="#125e39" stroke="#125e39"/><path d="M1465,819L1398,1010L1620,957Z" fill="#125120" stroke="#125120"/><path d="M1465,819L1620,957L1589,842Z" fill="#125526" stroke="#125526"/><path d="M1589,842L1620,957L1729,810Z" fill="#12501b" stroke="#12501b"/><path d="M1729,810L1620,957L1737,985Z" fill="#12460d" stroke="#12460d"/><path d="M-41,1017L-66,1117L72,1140Z" fill="#8e8b7c" stroke="#8e8b7c"/><path d="M-41,1017L72,1140L102,1006Z" fill="#898c7a" stroke="#898c7a"/><path d="M102,1006L72,1140L282,1153Z" fill="#807f76" stroke="#807f76"/><path d="M102,1006L282,1153L274,973Z" fill="#7a8273" stroke="#7a8273"/><path d="M274,973L282,1153L413,993Z" fill="#717e71" stroke="#717e71"/><path d="M413,993L282,1153L411,1181Z" fill="#6c7370" stroke="#6c7370"/><path d="M413,993L411,1181L473,1094Z" fill="#66736e" stroke="#66736e"/><path d="M413,993L473,1094L481,998Z" fill="#64796e" stroke="#64796e"/><path d="M481,998L473,1094L717,990Z" fill="#56756b" stroke="#56756b"/><path d="M717,990L473,1094L729,1115Z" fill="#4a6c69" stroke="#4a6c69"/><path d="M717,990L729,1115L782,1001Z" fill="#3e6b65" stroke="#3e6b65"/><path d="M782,1001L729,1115L783,1165Z" fill="#3b6265" stroke="#3b6265"/><path d="M782,1001L783,1165L945,1081Z" fill="#346062" stroke="#346062"/><path d="M782,1001L945,1081L954,928Z" fill="#2d6760" stroke="#2d6760"/><path d="M954,928L945,1081L1112,923Z" fill="#216754" stroke="#216754"/><path d="M1112,923L945,1081L1126,1110Z" fill="#1a5d4d" stroke="#1a5d4d"/><path d="M1112,923L1126,1110L1281,1004Z" fill="#135b3f" stroke="#135b3f"/><path d="M1281,1004L1126,1110L1262,1129Z" fill="#134e39" stroke="#134e39"/><path d="M1281,1004L1262,1129L1399,1106Z" fill="#12492d" stroke="#12492d"/><path d="M1281,1004L1399,1106L1398,1010Z" fill="#124b27" stroke="#124b27"/><path d="M1398,1010L1399,1106L1587,1104Z" fill="#12401a" stroke="#12401a"/><path d="M1398,1010L1587,1104L1620,957Z" fill="#124210" stroke="#124210"/><path d="M1620,957L1587,1104L1737,985Z" fill="#123c02" stroke="#123c02"/><path d="M1737,985L1587,1104L1697,1161Z" fill="#123100" stroke="#123100"/><path d="M72,1140L411,1181L282,1153Z" fill="#777173" stroke="#777173"/><path d="M411,1181L1697,1161L783,1165Z" fill="#254f59" stroke="#254f59"/><path d="M411,1181L783,1165L729,1115Z" fill="#4a6169" stroke="#4a6169"/><path d="M411,1181L729,1115L473,1094Z" fill="#58686b" stroke="#58686b"/><path d="M783,1165L1697,1161L1262,1129Z" fill="#124335" stroke="#124335"/><path d="M783,1165L1262,1129L1126,1110Z" fill="#1b504d" stroke="#1b504d"/><path d="M783,1165L1126,1110L945,1081Z" fill="#27565a" stroke="#27565a"/><path d="M1262,1129L1697,1161L1399,1106Z" fill="#12391b" stroke="#12391b"/><path d="M1399,1106L1697,1161L1587,1104Z" fill="#12330d" stroke="#12330d"/></g></svg>